# xmcd
#
# Track frame offsets:
#	150
#	28318
#	49355
#	64143
#	86946
#	111146
#	134153
#	160484
#	191448
#
# Disc length: 2920 seconds
#
# Revision: 1
# Processed by: cddbd v1.5.2PL0 Copyright (c) Steve Scherf et al.
# Submitted via: audiograbber 1.83.01
#
DISCID=8b0b6609
DTITLE=Truck Stop - Das groﬂe Jubil‰um - 02 - Unsere besten Medleys
DYEAR=2018
DGENRE=Country
TTITLE0=Hilly Billy Medley
TTITLE1=Johnny Cash-Medley (Live)
TTITLE2=Blue Grass-Medley (Live)
TTITLE3=Super-Hit-Medley
TTITLE4=Arizona-Hit-Medley
TTITLE5=Schmuse-Medley
TTITLE6=Deputy-Medley
TTITLE7=Cowboy-Dance-Medley
TTITLE8=Trucker-Highwy-Medley
EXTD=
EXTT0=
EXTT1=
EXTT2=
EXTT3=
EXTT4=
EXTT5=
EXTT6=
EXTT7=
EXTT8=
PLAYORDER=
